<svg xmlns="http://www.w3.org/2000/svg" version="1.1" viewBox="0 0 16 16">
  <path d="m1 1h14v14h-14z" fill="#fff" />
  <path d="M1 1v14h14V1H1zm1 1h12v12H2V2z" fill="#999" />
  <path d="m3 3h10v8h-10z" fill="#676767" />
  <path d="m8 6h4v4h-4z" fill="#999" />
  <path fill="#fff" d="m10.67 9.33h-2l0.5-0.67 0.5-0.66 0.5 0.67z" />
  <path fill="#fff" d="m11.33 9.33h-1.77l0.88-0.88 0.44 0.44z" />
  <circle cx="11" cy="7.67" r=".33" fill="#fff" />
  <path d="m4 4h8v1h-8zm0 2h3v1h-3zm0 2h3v1h-3z" fill="#999" />
  <path d="m10 12h3v1h-3z" fill="#999" />
</svg>
